<?xml version="1.0" encoding="UTF-8"?>
<svg version="1.1" xmlns="http://www.w3.org/2000/svg" width="512" height="512">
<path d="M0 0 C1.2736718 -0.0098568 1.2736718 -0.0098568 2.57307434 -0.01991272 C5.38489877 -0.03963392 8.19666983 -0.05130526 11.00854492 -0.0612793 C11.96917028 -0.06535482 12.92979565 -0.06943035 13.91953087 -0.07362938 C19.00331787 -0.09448437 24.08707792 -0.10878898 29.17089844 -0.11816406 C34.42006879 -0.12923162 39.66881561 -0.16363722 44.91783619 -0.20333576 C48.95591518 -0.22948575 52.99389296 -0.23785443 57.03204918 -0.24144554 C58.96692454 -0.24631511 60.90179528 -0.25793963 62.83658791 -0.27648354 C65.54634782 -0.30084219 68.25500778 -0.29991611 70.96484375 -0.29296875 C72.15971405 -0.31218384 72.15971405 -0.31218384 73.37872314 -0.33178711 C78.5932939 -0.28314248 81.6028442 0.6452202 85.67651367 4.17700195 C89.74526316 9.02560986 90.96736455 14.07187745 92.36425781 20.09643555 C92.60487505 21.09011265 92.84549229 22.08378975 93.09340096 23.10757828 C93.8942848 26.42756154 94.677892 29.75137984 95.46166992 33.07543945 C96.03150947 35.45243525 96.60244353 37.82916889 97.1743927 40.20565796 C98.40062062 45.31077963 99.6195824 50.41757719 100.83197021 55.52600098 C102.58621119 62.91711115 104.35418943 70.30488076 106.12601662 77.69179249 C108.80372385 88.85592832 111.47425925 100.02176054 114.13936615 111.18891048 C119.69592617 134.47022307 125.30450748 157.73892878 130.91796207 181.00658226 C132.92528966 189.32745729 134.92886961 197.64922783 136.93066406 205.97143555 C139.19298157 215.37633268 141.46286653 224.77936261 143.74223042 234.18014336 C144.94999341 239.16383605 146.14892372 244.14945735 147.33528709 249.13828659 C147.82119152 251.17561466 148.31177523 253.21174009 148.80471802 255.24737549 C149.36285834 257.55247586 149.91361496 259.85938666 150.45431519 262.16864014 C152.16363093 269.14704784 153.85928028 274.99220871 159.73901367 279.55200195 C163.28063301 281.51119563 165.86464467 282.30157557 169.84956646 282.31122303 C170.70403793 282.31568087 171.5585094 282.32013872 172.43887395 282.32473165 C173.3779608 282.32454729 174.31704765 282.32436292 175.28459167 282.32417297 C176.78067529 282.32968801 176.78067529 282.32968801 178.30698282 282.33531445 C181.66478405 282.34636882 185.02255437 282.35019811 188.38037109 282.35400391 C190.78159687 282.36026722 193.18282168 282.3669139 195.58404541 282.37391663 C202.80128389 282.39315634 210.01851982 282.40374674 217.23577616 282.41264442 C220.63526133 282.41702839 224.03474495 282.42239493 227.4342289 282.42763329 C238.73631943 282.44464535 250.038409 282.45913911 261.34051037 282.46638203 C264.27323088 282.46829189 267.20595139 282.47021223 270.13867188 282.47216797 C271.23203032 282.47289358 271.23203032 282.47289358 272.34747682 282.47363385 C284.15304069 282.48193265 295.95850318 282.5072671 307.76402279 282.53974865 C319.88693147 282.57283126 332.00978865 282.59083189 344.1327427 282.59402627 C350.93834838 282.59619031 357.74380625 282.6049232 364.5493679 282.63048744 C370.95235657 282.65448401 377.35515148 282.65801254 383.75817871 282.64772606 C386.10755103 282.64722991 388.45693632 282.65357359 390.80626869 282.6672821 C394.01567106 282.68496044 397.22411455 282.67791405 400.43351746 282.66474915 C401.82541732 282.68120301 401.82541732 282.68120301 403.24543637 282.69798928 C409.98674999 282.63130824 415.59065862 281.29190023 420.45897961 276.37775993 C423.40003361 271.22797152 425.02710169 266.2434817 426.30859375 260.46655273 C426.53043272 259.5243475 426.75227169 258.58214226 426.98083305 257.61138535 C427.71194702 254.4930132 428.4225023 251.37031859 429.13354492 248.24731445 C429.65189601 246.02194165 430.1718545 243.79694272 430.6933136 241.57229614 C431.79655579 236.86055473 432.89295659 232.14729328 433.98516846 227.4329834 C436.47677457 216.70817451 439.06390518 206.00632724 441.64187241 195.30202484 C443.07486517 189.34498333 444.49958103 183.38596448 445.92456055 177.42700195 C447.66443514 170.15197214 449.40540426 162.87721401 451.15185547 155.60375977 C452.60240431 149.56238397 454.04876446 143.52001966 455.49216652 137.47693253 C456.03409016 135.21123786 456.57749509 132.94589692 457.12247276 130.68093491 C457.8745654 127.55410405 458.6212661 124.42603154 459.36669922 121.29760742 C459.58737061 120.38569138 459.80804199 119.47377533 460.03540039 118.53422546 C462.72284182 108.46123819 462.72284182 108.46123819 461.36401367 98.42700195 C461.09975586 97.7102832 460.83549805 96.99356445 460.56323242 96.25512695 C458.96978313 92.04988887 458.96978313 92.04988887 455.86401367 89.05200195 C455.14213867 88.76325195 454.42026367 88.47450195 453.67651367 88.17700195 C452.91074786 87.83418007 452.14498205 87.49135819 451.35601121 87.13814777 C448.57330409 86.13998029 446.55885932 85.92589288 443.61705303 85.92366886 C442.61578025 85.91805347 441.61450746 85.91243807 440.58289307 85.90665251 C439.49010303 85.9106336 438.39731298 85.9146147 437.27140808 85.91871643 C435.52162272 85.91320287 435.52162272 85.91320287 433.73648816 85.90757793 C430.50233357 85.89932444 427.2683206 85.89996866 424.03416288 85.90430486 C420.54461794 85.90678205 417.05510145 85.89771148 413.56556702 85.8899231 C407.51915689 85.87787949 401.47277311 85.87277023 395.42635155 85.8720417 C386.67553066 85.87071575 377.9247737 85.85560112 369.17397539 85.83654653 C354.96478707 85.80570373 340.75559714 85.78153927 326.54638672 85.76367188 C325.69599689 85.76259919 324.84560705 85.76152651 323.96944783 85.76042133 C314.48400749 85.74860377 304.99856651 85.73839814 295.51312256 85.72998047 C292.07466632 85.7269066 288.6362101 85.7238178 285.19775391 85.72070312 C283.92508807 85.71955512 283.92508807 85.71955512 282.62671181 85.71838392 C268.47421276 85.70529749 254.32175994 85.68065094 240.16929513 85.64695972 C231.44209898 85.62668072 222.71500175 85.61637882 213.98778186 85.61894893 C208.00595224 85.61998487 202.02420076 85.61033317 196.04239842 85.5923099 C192.5922891 85.58227636 189.14235271 85.57712437 185.69223404 85.58507729 C181.94883579 85.59120796 178.20592592 85.57900525 174.46257019 85.56227112 C173.37647231 85.56848293 172.29037443 85.57469475 171.17136449 85.5810948 C164.6600121 85.52803366 158.12503391 85.30098243 153.03285569 80.6880284 C149.30408505 76.53400901 148.98380295 72.18352429 149.25854492 66.76293945 C150.05781111 61.81794677 152.44086694 59.26664708 156.09010983 56.04859161 C160.76085823 53.04692339 166.06753981 53.626072 171.43397522 53.66906738 C172.62641025 53.66282742 173.81884529 53.65658746 175.04741472 53.65015841 C178.34974415 53.63697566 181.65116198 53.6417037 184.95343578 53.65410328 C188.51806114 53.66315867 192.08260721 53.64918118 195.6472168 53.63818359 C202.6292176 53.62039511 209.6110464 53.62424088 216.59305394 53.63583416 C222.27168509 53.64487199 227.95026807 53.64609095 233.62890434 53.64173889 C234.43751885 53.64112596 235.24613335 53.64051303 236.07925133 53.63988152 C237.72208863 53.63860258 239.36492592 53.63730573 241.0077632 53.63599116 C256.41615661 53.62458309 271.82445486 53.63769996 287.23283266 53.65919262 C300.43603129 53.67704011 313.63908912 53.67397937 326.84228516 53.65551758 C342.18512347 53.63407391 357.52787818 53.62570669 372.87072939 53.63796663 C374.50962379 53.63924077 376.14851821 53.64049825 377.78741264 53.64173889 C378.59369777 53.64235599 379.39998289 53.6429731 380.2307009 53.6436089 C385.89482414 53.6470531 391.55889412 53.64125307 397.22300911 53.63182068 C404.13734801 53.62055935 411.05150546 53.62372606 417.96582378 53.64494365 C421.48951608 53.65540254 425.01290674 53.65966553 428.5365963 53.64634705 C432.36808372 53.63535656 436.19873211 53.64919959 440.03016663 53.66906738 C441.12825482 53.6601445 442.22634301 53.65122161 443.35770661 53.64202833 C455.11702604 53.75965317 465.39693158 56.90677819 474.67651367 64.17700195 C475.29010742 64.62817383 475.90370117 65.0793457 476.53588867 65.54418945 C485.60979118 72.65074142 491.15251314 83.05595382 493.67651367 94.17700195 C495.13231694 110.60693525 491.54226906 125.68178651 487.57522964 141.51237106 C486.67856585 145.11146819 485.80765902 148.71678452 484.93505859 152.32177734 C483.79293449 157.03508889 482.64876369 161.74785344 481.49461365 166.45823669 C478.4618488 178.84787051 475.52961621 191.25947436 472.63356781 203.68173027 C471.8930436 206.85727121 471.15104145 210.03246304 470.4085083 213.20753479 C470.16390869 214.25348533 469.91930908 215.29943586 469.66729736 216.37708187 C469.17422847 218.48537481 468.68114581 220.59366454 468.18804932 222.70195103 C466.97047932 227.90958856 465.75530378 233.11776212 464.54510498 238.32711792 C463.39483671 243.27610988 462.23525369 248.2228374 461.06921577 253.1681366 C460.64023563 254.99452765 460.21446367 256.82167588 459.79224968 258.64964294 C455.53257077 277.07849094 450.82824272 294.52575469 434.67651367 306.17700195 C424.63672909 312.13729623 415.74419934 314.48198498 404.19709778 314.44442749 C403.16629599 314.4489586 402.1354942 314.45348972 401.07345599 314.45815814 C397.63225794 314.47078058 394.19121859 314.46918313 390.75 314.4675293 C388.27733152 314.47351593 385.8046649 314.48032178 383.33200073 314.48788452 C377.31953653 314.50370643 371.30713431 314.50999238 365.29465506 314.51110928 C360.40364732 314.51206165 355.51265245 314.51618139 350.62164879 314.52251053 C336.73436637 314.5401136 322.84711479 314.549351 308.95982114 314.54784958 C308.21204989 314.54776967 307.46427864 314.54768976 306.69384766 314.54760742 C305.57081042 314.54748478 305.57081042 314.54748478 304.42508557 314.54735966 C292.29988618 314.54654729 280.17481116 314.56567501 268.04964773 314.59388416 C255.579636 314.62266506 243.10968483 314.63642155 230.63963908 314.6346966 C223.64672285 314.63403444 216.65393698 314.63945009 209.6610508 314.6610527 C203.08067875 314.68125169 196.50053399 314.68053776 189.92013168 314.66601944 C187.51158305 314.66393409 185.10301708 314.66861576 182.69449806 314.68074036 C163.34873569 314.77178242 148.60702894 313.06335588 133.48901367 299.73950195 C124.2876182 289.75001817 120.32871385 276.11788258 117.36401367 263.19262695 C116.99481392 261.65189086 116.62383726 260.11157968 116.25126648 258.57165527 C115.24767067 254.40271059 114.26811516 250.22845294 113.29269028 246.05284119 C112.24110476 241.57150502 111.16626407 237.09574918 110.09375 232.61938477 C108.24516925 224.89249816 106.40945461 217.162651 104.58129883 209.4309082 C101.60512119 196.849499 98.58744921 184.27818742 95.56323242 171.70825195 C94.52866511 167.40716012 93.49417797 163.106049 92.4597168 158.80493164 C92.20373152 157.74071865 91.94774624 156.67650566 91.68400383 155.58004379 C89.88631448 148.10457219 88.09349005 140.6279455 86.3034668 133.15063477 C81.83620469 114.49136318 77.362236 95.83406391 72.82104492 77.19262695 C72.4550158 75.68862796 72.08902283 74.18462016 71.72306824 72.68060303 C69.72357793 64.46373215 69.72357793 64.46373215 67.71273804 56.24963379 C66.84278784 52.70548375 65.97794256 49.16012358 65.11401367 45.61450195 C64.86218826 44.59680725 64.61036285 43.57911255 64.35090637 42.53057861 C64.12706772 41.60823425 63.90322906 40.68588989 63.67260742 39.7355957 C63.47852295 38.94467529 63.28443848 38.15375488 63.08447266 37.33886719 C62.67651367 35.17700195 62.67651367 35.17700195 62.67651367 31.17700195 C61.85267685 31.18144318 61.02884003 31.1858844 60.18003845 31.19046021 C52.39738542 31.23061654 44.61478297 31.26102673 36.83205318 31.2806263 C32.83134969 31.29104152 28.83073216 31.30515918 24.83007812 31.32788086 C20.96565982 31.34969021 17.10132395 31.36158758 13.23684883 31.36675644 C11.76613633 31.37043771 10.29542809 31.37762621 8.8247509 31.38846207 C6.75693052 31.40308489 4.6894462 31.40497545 2.62158203 31.40405273 C1.44687851 31.40849396 0.27217499 31.41293518 -0.93812561 31.41751099 C-6.18880082 31.04448284 -10.12390632 30.21663796 -14.13598633 26.73950195 C-18.38090159 21.76688693 -18.92468999 18.67868407 -18.84692383 12.27075195 C-18.00341803 7.28525502 -15.23853936 4.23694704 -11.32348633 1.17700195 C-7.5269428 -0.08851256 -3.95659064 0.01325466 0 0 Z " fill="#000000" transform="translate(18.323486328125,32.822998046875)"/>
<path d="M0 0 C9.25049545 7.19247238 15.35463938 17.68452646 19.015625 28.63671875 C19.26054687 29.34828125 19.50546875 30.05984375 19.7578125 30.79296875 C23.94020103 45.68914707 21.09942876 62.78086199 13.703125 76.07421875 C4.37157837 90.76894902 -8.1650721 99.40563937 -24.875 104.17651367 C-36.53901183 106.72126625 -50.13326856 105.2522598 -60.984375 100.63671875 C-61.83773437 100.30929687 -62.69109375 99.981875 -63.5703125 99.64453125 C-76.95821105 93.85859402 -87.30109415 81.55539057 -92.796875 68.32421875 C-98.68628988 51.72500982 -97.84740051 35.73911453 -90.984375 19.63671875 C-82.60702814 3.41197884 -69.14197261 -5.8564661 -51.984375 -11.36328125 C-33.5043051 -16.23953499 -15.2474251 -10.4751011 0 0 Z M-59.984375 28.63671875 C-64.65250169 35.62681519 -66.91145521 42.82701613 -65.57421875 51.20703125 C-63.17124985 60.61746034 -58.12665732 66.37900267 -50.03515625 71.5078125 C-44.15164668 74.74654444 -37.49778945 74.24342866 -30.984375 73.63671875 C-23.22022952 71.30328958 -16.72108518 66.38738775 -12.66796875 59.3515625 C-9.07232701 51.44616201 -8.6627947 43.67462918 -11.484375 35.44921875 C-14.87513102 27.96576072 -20.74409984 22.23658341 -28.43359375 19.26171875 C-40.31077386 16.35153679 -51.92020981 19.28870637 -59.984375 28.63671875 Z " fill="#000000" transform="translate(247.984375,374.36328125)"/>
<path d="M0 0 C10.37656373 8.95316678 18.97961853 21.86176072 20.91015625 35.70703125 C21.67334608 47.53916095 21.61512156 58.64568896 16.91015625 69.70703125 C16.41902344 70.98707031 16.41902344 70.98707031 15.91796875 72.29296875 C10.67911014 84.41499927 -0.58283335 95.16937112 -12.6875 100.203125 C-29.62649727 106.54842314 -46.66132045 106.94404701 -63.32055664 99.45019531 C-77.91167115 92.5348277 -87.04338431 81.55530332 -93.046875 66.76171875 C-98.37809202 51.14744269 -97.63875108 34.3679776 -90.51171875 19.390625 C-81.79777776 3.70945641 -69.21653352 -6.08049795 -52.08984375 -11.29296875 C-34.14411866 -16.03794013 -14.61209206 -10.84361319 0 0 Z M-59.6171875 28.70703125 C-64.31839896 35.0917004 -65.82592194 41.89023646 -65.54296875 49.7421875 C-64.43816109 56.97105829 -60.74196848 63.10646461 -55.08984375 67.70703125 C-46.61051591 73.55426911 -39.09373336 75.1562405 -28.73828125 73.28125 C-21.29675879 70.86497876 -15.79773987 65.57846079 -12.15234375 58.76953125 C-8.22660454 49.91998355 -8.61436712 42.8151769 -12.08984375 33.70703125 C-16.46891648 25.848371 -22.66066557 21.51675731 -31.08984375 18.70703125 C-42.65763452 17.57134352 -51.65155798 19.96931944 -59.6171875 28.70703125 Z " fill="#000000" transform="translate(426.08984375,374.29296875)"/>
</svg>
