<?xml version="1.0" encoding="UTF-8"?>
<svg version="1.1" xmlns="http://www.w3.org/2000/svg" width="512" height="512">
<path d="M0 0 C18.86986608 17.14261004 32.68981843 40.80155472 35.28369141 66.50683594 C36.74383991 97.78326813 32.04656255 124.92151153 11.28369141 149.50683594 C10.26662109 150.725 10.26662109 150.725 9.22900391 151.96777344 C-7.74470457 171.5992868 -31.1311068 183.75030968 -56.71630859 187.50683594 C-88.99862386 189.37562215 -117.7542977 183.18617143 -142.71630859 161.50683594 C-150.05644602 154.90843871 -156.48657192 147.92101623 -161.71630859 139.50683594 C-162.29896484 138.60707031 -162.88162109 137.70730469 -163.48193359 136.78027344 C-178.43677077 112.65747087 -182.14386409 83.48475562 -176.30712891 55.93603516 C-172.16045641 38.88669991 -164.12516303 23.78216963 -152.71630859 10.50683594 C-152.19939453 9.84554687 -151.68248047 9.18425781 -151.14990234 8.50292969 C-135.22964609 -11.24776416 -109.29332328 -22.62344328 -84.65380859 -26.11816406 C-53.88333346 -28.98794931 -23.49353916 -20.43904488 0 0 Z M-120.80615234 40.79199219 C-132.51345084 54.90735646 -136.38472586 71.56348038 -134.71630859 89.50683594 C-132.28262652 106.63995777 -123.23700716 120.69918506 -110.17333984 131.63574219 C-97.01459998 141.32174625 -81.06377976 146.16960729 -64.71630859 144.50683594 C-46.89693253 141.65483466 -31.32103422 133.65384066 -20.27880859 119.00683594 C-10.47015795 104.44616822 -5.38274697 88.19062035 -8.37646484 70.63574219 C-11.99930059 53.29474239 -20.4164762 39.11801993 -34.71630859 28.56933594 C-64.12247552 9.5063476 -97.67052013 15.49415135 -120.80615234 40.79199219 Z " fill="#000000" transform="translate(284.71630859375,68.4931640625)"/>
<path d="M0 0 C0.65742188 0.20963379 1.31484375 0.41926758 1.9921875 0.63525391 C19.66052848 6.39609099 36.47095247 15.42721313 51 27 C51.82636963 27.65718018 51.82636963 27.65718018 52.66943359 28.32763672 C87.39337605 56.25361072 111.82967971 97.0359559 116.82568359 141.76879883 C117.22201881 146.84177853 117.31156556 151.91371138 117.375 157 C117.41238281 158.13695312 117.44976562 159.27390625 117.48828125 160.4453125 C117.57344096 168.60172044 116.20031184 173.591555 110.55639648 179.51513672 C105.75325613 183.88733671 100.67788634 185.5192032 94.2109375 185.30859375 C87.07377939 184.31241797 81.64017662 181.49684919 77.15625 175.87890625 C74.77057213 172.0021797 73.75813556 168.41762449 73.5078125 163.89453125 C73.4449707 162.92 73.38212891 161.94546875 73.31738281 160.94140625 C73.25389648 159.90886719 73.19041016 158.87632812 73.125 157.8125 C70.43216406 121.3218252 55.08602244 88.98687116 27.25 64.8125 C0.28151007 43.09851585 -33.6956322 33.42956628 -68.04711914 36.89453125 C-100.55408696 40.74439237 -131.99772917 57.0734914 -152.50927734 82.90039062 C-155.92161762 87.44413745 -159.02213643 92.1626128 -162 97 C-162.56243408 97.90806396 -162.56243408 97.90806396 -163.13623047 98.83447266 C-174.63326205 117.7949462 -179.62359344 139.29219164 -180.59619141 161.23242188 C-180.94342977 167.948868 -181.89992771 172.50261674 -186.3125 177.75 C-192.51427746 182.94218578 -196.72955831 185.33969001 -204.84765625 185.21875 C-210.70103207 184.62385155 -215.84930808 182.15069192 -220 178 C-229.45121552 164.33405323 -224.71582046 144.30472516 -222 129 C-220.68774364 122.56181692 -218.96793682 116.26651155 -217 110 C-216.79036621 109.32984863 -216.58073242 108.65969727 -216.36474609 107.96923828 C-210.82070634 90.79082412 -201.91935105 74.33412992 -191 60 C-190.35289062 59.13117188 -189.70578125 58.26234375 -189.0390625 57.3671875 C-161.26965201 21.72445756 -120.5369531 -1.417994 -75.78979492 -7.29003906 C-50.14649737 -10.20221165 -24.50998709 -7.93945244 0 0 Z " fill="#000000" transform="translate(267,285)"/>
<path d="M0 0 C1.23834595 -0.0129007 1.23834595 -0.0129007 2.50170898 -0.02606201 C3.40407791 -0.03032196 4.30644684 -0.03458191 5.23616028 -0.03897095 C6.66594711 -0.05123718 6.66594711 -0.05123718 8.12461853 -0.06375122 C11.28394443 -0.08859395 14.44322538 -0.10511948 17.60261536 -0.11953735 C19.22184623 -0.12752287 19.22184623 -0.12752287 20.87378883 -0.13566971 C26.58881037 -0.16239791 32.3038101 -0.18177288 38.01887512 -0.19619751 C43.91585418 -0.21283386 49.81227314 -0.25760465 55.70904064 -0.30856895 C60.24817532 -0.34226064 64.78717743 -0.35377714 69.32642555 -0.35942459 C71.49969571 -0.36613292 73.67295727 -0.381344 75.84610558 -0.4053154 C78.89325159 -0.43700667 81.93889207 -0.43699726 84.98616028 -0.42959595 C86.32453194 -0.45420395 86.32453194 -0.45420395 87.68994141 -0.47930908 C94.68247724 -0.41003454 99.38533072 1.80044626 104.4617033 6.59668922 C108.81212938 11.42080115 110.45408516 16.46878703 110.24324036 22.94296265 C109.24706458 30.08012076 106.4314958 35.51372353 100.81355286 39.99765015 C95.4310323 43.30997049 90.74778008 43.45079564 84.5896759 43.44442749 C83.65569977 43.45114471 82.72172363 43.45786194 81.75944519 43.46478271 C78.67586425 43.48375986 75.59250104 43.48768688 72.50886536 43.48983765 C70.36041169 43.4962661 68.21195891 43.50299449 66.06350708 43.51000977 C61.56032787 43.52198206 57.05722537 43.52569067 52.55403137 43.52450562 C46.79392578 43.52430251 41.03431401 43.55159668 35.27432537 43.58605003 C30.83640297 43.60832805 26.39859919 43.61234286 21.9606266 43.61128616 C19.83762219 43.61364106 17.71461446 43.62245827 15.59166527 43.6379509 C12.61669591 43.65762732 9.64278871 43.65176588 6.6678009 43.63973999 C5.7973967 43.650979 4.92699249 43.66221802 4.0302124 43.67379761 C-2.70963347 43.60484121 -7.94388064 41.84752625 -13.08879089 37.4078064 C-13.53480652 36.84964233 -13.98082214 36.29147827 -14.44035339 35.71640015 C-14.90183777 35.16081421 -15.36332214 34.60522827 -15.83879089 34.0328064 C-19.54081352 28.36187365 -19.91254595 22.74611722 -19.06535339 16.15390015 C-16.80807602 9.02936843 -13.50118648 4.84854507 -7.06535339 1.15390015 C-4.36348292 0.25327666 -2.77592166 0.02157648 0 0 Z " fill="#000000" transform="translate(360.0653533935547,127.84609985351563)"/>
<path d="M0 0 C1.65680283 -0.00642769 1.65680283 -0.00642769 3.34707642 -0.01298523 C5.67864295 -0.01871645 8.01022735 -0.01923772 10.34179688 -0.01489258 C13.89484413 -0.01173582 17.44705576 -0.03519683 21 -0.06054688 C23.27083229 -0.06282041 25.5416668 -0.06352311 27.8125 -0.0625 C29.3956752 -0.07631462 29.3956752 -0.07631462 31.01083374 -0.09040833 C39.3095106 -0.03877378 46.41783236 1.17955111 52.5390625 7.30078125 C56.77941091 13.43209584 58.28105922 18.86732317 57.5390625 26.30078125 C55.87326153 33.42306412 52.3472629 37.23761361 46.4765625 41.55078125 C42.40325705 43.97743131 39.24414058 44.42462336 34.54614258 44.4777832 C33.05858208 44.49703606 33.05858208 44.49703606 31.54096985 44.51667786 C29.94094368 44.52775826 29.94094368 44.52775826 28.30859375 44.5390625 C27.20360031 44.54713425 26.09860687 44.55520599 24.96012878 44.56352234 C22.62081464 44.57734845 20.28148044 44.58807718 17.94213867 44.59594727 C14.38225571 44.61313307 10.82330813 44.65703091 7.26367188 44.70117188 C4.98698597 44.71130179 2.7102922 44.71981696 0.43359375 44.7265625 C-0.62296921 44.74407059 -1.67953217 44.76157867 -2.76811218 44.77961731 C-10.14785186 44.75818742 -16.79668863 43.76697386 -22.34220886 38.52119446 C-28.05338233 32.2074832 -28.97232994 27.29467612 -28.83984375 18.7890625 C-28.14971955 12.43565103 -25.12141301 8.63553719 -20.5234375 4.42578125 C-13.96140137 -0.12746831 -7.72161944 -0.00664233 0 0 Z " fill="#000000" transform="translate(412.4609375,41.69921875)"/>
<path d="M0 0 C2.25866771 -0.00436177 4.51536056 -0.04068314 6.77368164 -0.07861328 C16.08810909 -0.15188159 22.77212567 0.27272991 29.77563477 7.12060547 C33.77234675 13.05857756 36.17099349 19.08227612 34.96313477 26.37060547 C32.8048986 33.91158539 28.79699769 38.22371849 22.34155273 42.42626953 C18.9724292 43.7639589 15.69889339 43.67586985 12.12719727 43.67138672 C11.37022552 43.67567184 10.61325378 43.67995697 9.83334351 43.68437195 C8.23469033 43.69010443 6.63601107 43.69062348 5.03735352 43.6862793 C2.60330186 43.68312512 0.17047327 43.7065702 -2.26342773 43.73193359 C-3.82071788 43.73420743 -5.37801127 43.73490969 -6.93530273 43.73388672 C-8.01840225 43.74770134 -8.01840225 43.74770134 -9.12338257 43.76179504 C-15.18495385 43.70686586 -19.05295366 42.02386511 -23.66186523 38.18310547 C-28.74440282 32.16431096 -30.75698883 27.00445588 -30.41577148 19.04638672 C-29.44637315 12.20063556 -26.13536374 7.93269936 -20.91577148 3.59716797 C-14.44420776 -0.62751189 -7.43482334 -0.00160805 0 0 Z " fill="#000000" transform="translate(435.036865234375,212.62939453125)"/>
</svg>
